<?xml version="1.0" encoding="UTF-8"?> <!-- Generator: Adobe Illustrator 23.0.3, SVG Export Plug-In . SVG Version: 6.00 Build 0) --> <svg xmlns="http://www.w3.org/2000/svg" xmlns:xlink="http://www.w3.org/1999/xlink" id="Ebene_1" x="0px" y="0px" viewBox="0 0 192.3 95" style="enable-background:new 0 0 192.3 95;" xml:space="preserve"> <style type="text/css"> .st0{fill:#004687;} .st1{fill:#74ADDE;} </style> <title>mainanalytics_logo</title> <path class="st0" d="M2.8,16.4c0-5.2,3.3-7.7,7.2-7.7c2.2,0,4.1,1.2,5.1,3.1c1-1.9,3-3.1,5.1-3c4,0,7.2,2.5,7.2,7.7v11.9h-4.3V16.9 c0-2.9-1-4.4-2.9-4.4s-2.9,1.7-2.9,5v10.9h-4.3V17.5c0-3.3-1.1-5-2.9-5S7.1,14,7.1,16.9v11.6H2.8V16.4z"></path> <path class="st0" d="M38.1,16.6h3v-0.7c0-2.2-1.1-3.4-3-3.4c-1.8,0.1-3.5,0.4-5.2,0.9l-0.9-3.5c2-0.7,4-1.1,6.1-1.1 c4.4,0,7.4,2.8,7.4,7.1v6.7c0,3.7-3.4,6.4-7.3,6.4c-4.1,0-7.3-2.8-7.3-6.4C30.9,18.6,33.9,16.6,38.1,16.6z M38.2,25.2 c1.5,0.1,2.9-1.1,3-2.6c0,0,0-0.1,0-0.1v-2.7h-3.1c-1.4-0.2-2.6,0.8-2.8,2.1c0,0.2,0,0.3,0,0.5c0,1.5,1.2,2.7,2.7,2.8 C38.1,25.2,38.1,25.2,38.2,25.2z"></path> <path class="st0" d="M49.9,3.8c0-1.4,1.2-2.6,2.6-2.6c1.4,0,2.6,1.2,2.6,2.6s-1.2,2.6-2.6,2.6C51.1,6.4,49.9,5.2,49.9,3.8L49.9,3.8z M50.4,9.2h4.3v19.2h-4.3V9.2z"></path> <path class="st0" d="M60,16.7c0-5.2,3.4-7.9,7.7-7.9s7.6,2.7,7.6,7.9v11.8h-4.3V16.9c0-2.9-1.3-4.4-3.3-4.4c-2,0-3.4,1.5-3.4,4.4 v11.6H60V16.7z"></path> <path class="st0" d="M44.6,43.2h3v-0.7c0-2.2-1.1-3.4-3-3.4c-1.8,0.1-3.5,0.4-5.2,0.9l-0.9-3.5c2-0.7,4-1.1,6.1-1.1 c4.4,0,7.4,2.8,7.4,7.1V49c0,3.7-3.4,6.4-7.3,6.4c-4.1,0-7.3-2.8-7.3-6.4C37.4,45.2,40.3,43.2,44.6,43.2z M44.7,51.7 c1.5,0.1,2.8-1.1,2.9-2.6c0,0,0-0.1,0-0.1v-2.7h-3.1c-1.4-0.2-2.6,0.8-2.8,2.1c0,0.2,0,0.4,0,0.5c0,1.5,1.2,2.7,2.7,2.7 C44.6,51.8,44.6,51.8,44.7,51.7z"></path> <path class="st0" d="M56.7,43.2c0-5.2,3.4-7.9,7.7-7.9c4.2,0,7.6,2.7,7.6,7.9V55h-4.4V43.4c0-2.9-1.3-4.4-3.2-4.4 c-2,0-3.4,1.5-3.4,4.4V55h-4.3V43.2z"></path> <path class="st0" d="M83.4,43.2h3v-0.7c0-2.2-1.1-3.4-3-3.4c-1.8,0.1-3.5,0.4-5.2,0.9l-0.9-3.5c2-0.7,4-1.1,6.1-1.1 c4.4,0,7.4,2.8,7.4,7.1V49c0,3.7-3.4,6.4-7.3,6.4c-4.1,0-7.3-2.8-7.3-6.4C76.1,45.2,79.1,43.2,83.4,43.2z M83.4,51.7 c1.5,0.1,2.9-1.1,3-2.6c0,0,0-0.1,0-0.1v-2.7h-3.1c-1.4-0.2-2.6,0.8-2.8,2.1c0,0.2,0,0.4,0,0.5c0,1.5,1.2,2.7,2.7,2.7 C83.3,51.8,83.4,51.8,83.4,51.7z"></path> <path class="st0" d="M95.6,28.2l4.3-0.7V55h-4.3V28.2z"></path> <path class="st0" d="M103.7,35.8h4.3l1.7,12c0.3,2.2,1.1,3.4,2.8,3.4h1.4l1.9-15.5h4.3l-3.6,27h-4.2l1-7.8h-1c-4.4,0-6.4-2.8-7-6.8 L103.7,35.8z"></path> <path class="st0" d="M125.8,38.8h-2.4l-0.8-3h3.2v-5.3l4.4-0.7v6h3.4v3h-3.4V55h-4.4V38.8z"></path> <path class="st0" d="M136.6,30.4c0.1-1.4,1.3-2.5,2.8-2.4c1.3,0.1,2.3,1.1,2.4,2.4c-0.1,1.4-1.3,2.5-2.8,2.4 C137.7,32.7,136.6,31.7,136.6,30.4z M137,35.8h4.3V55H137V35.8z"></path> <path class="st0" d="M146.2,43.7c0-5.9,3.4-8.4,8.2-8.4c1.9,0,3.7,0.3,5.5,0.9l-0.9,3.6c-1.4-0.4-2.9-0.7-4.4-0.7 c-2.6,0-4.1,1.3-4.1,4.7V47c0,3.4,1.5,4.8,4.1,4.8c1.5,0,3-0.3,4.4-0.7l0.9,3.6c-1.8,0.6-3.7,0.9-5.6,0.9c-4.8,0-8.2-2.5-8.2-8.4 V43.7z"></path> <path class="st0" d="M164,50.9c1.6,0.5,3.3,0.8,5,0.9c1.7,0,2.8-0.8,2.8-2c0-3.5-8.2-2.2-8.2-8.8c0-3.2,2.6-5.6,6.8-5.6 c1.7,0,3.5,0.3,5.1,0.9l-1,3.6c-1.3-0.5-2.7-0.7-4.1-0.8c-1.7,0-2.3,0.8-2.3,1.8c0,3.3,8.2,1.9,8.2,8.8c0,2.9-2.3,5.8-7.2,5.8 c-2,0-4-0.4-5.9-1.1L164,50.9z"></path> <path class="st1" d="M189.6,85.7L189.6,85.7c0-0.1,0-0.1,0-0.1c0-0.1,0,0,0-0.1v-0.1v-0.1v-0.1c-6.6-8.7-14.1-14.1-23.4-17.2 c-10.9-3.6-25-4.2-43.2-1.8c-6.9,0.9-14.4,2.3-22.4,3.7c-20,3.6-41.6,7.4-59.4,5.7C32,66.3,27.5,53,27.5,36.2c0-0.4-0.3-0.7-0.7-0.7 c-0.4,0-0.7,0.3-0.7,0.7c0,16.5,4.3,29.6,12.8,39.2L38,75.3c-10.1-8.8-15.2-21.9-15.2-39.1c0-0.4-0.3-0.7-0.7-0.7c0,0,0,0,0,0 c-0.4,0-0.8,0.3-0.8,0.7c0,16.7,4.8,29.7,14,38.7L35,74.9c-0.6-0.4-1.3-0.9-1.8-1.4c-9.9-8-14.9-20.6-14.9-37.2 c-0.1-0.4-0.4-0.7-0.8-0.7c-0.3,0-0.6,0.3-0.7,0.7c0,16.5,4.9,29,14.4,37.4c-1.4-0.9-2.8-1.9-4.1-2.9c-9-7.5-13.5-19.1-13.5-34.5 c0-0.4-0.3-0.7-0.8-0.7c-0.4,0-0.7,0.3-0.7,0.7l0,0c0,15.8,4.7,27.7,13.8,35.5c-1.6-0.9-3.1-2-4.6-3.2C13,61.6,8.8,50.7,8.8,36.2 c0-0.4-0.3-0.7-0.7-0.7c-0.4,0-0.7,0.3-0.7,0.7c0,14.9,4.4,26.2,12.9,33.4l0.6,0.5c-1.8-1-3.5-2.1-5.1-3.4C8,60.1,4.3,50.2,4.3,36.2 c0-0.4-0.3-0.7-0.7-0.7s-0.7,0.3-0.7,0.7c0,14.2,4.1,24.8,12.2,31.6c4.1,3.3,8.8,5.7,13.9,7.1c1.6,0.7,3.2,1.3,4.8,1.9 c1.7,0.9,3.5,1.6,5.3,2.3c1.6,0.9,3.3,1.7,5.1,2.4c1.6,0.9,3.2,1.7,4.8,2.4C60,91,74.1,93.7,88,93.7c10.5,0,21-1.5,31.2-4.2 c35.5-9.5,56.2-14.4,69.3-3.2l0.1,0.1c0,0,0,0,0.1,0h0.1h0.1h0.3h0.1h0.1c0,0,0,0,0.1,0c0,0,0,0,0.1,0h0.1l0,0l0,0v-0.1 c0,0,0,0,0-0.1l0,0v-0.1c0,0,0-0.1,0-0.1c0,0,0,0,0-0.1v-0.1L189.6,85.7z M164.4,72.3c-10.6-1.6-24.3-0.8-43.1,2.7l-2.5,0.5 c-14.4,2.6-32.4,5.9-49,6.3c-8.2,0.3-16.5-0.5-24.5-2.3l0,0c19.3,2.6,43.1-1.5,63.5-5c4.8-0.8,9.3-1.6,13.6-2.3 c25.4-4,40.9-2.5,51.6,2.6C170.8,73.5,167.6,72.7,164.4,72.3L164.4,72.3z M173,75.8c-3.1-0.8-6.2-1.2-9.4-1.4 c-10.3-0.7-23.6,0.8-43.1,4.9c-21.1,4.4-49,8.7-70.3,2.6c6.5,1,13,1.4,19.5,1.2c16.8-0.3,34.8-3.6,49.3-6.3l2.5-0.5 C145.3,72.1,161.2,71.7,173,75.8z M74.7,86.4c15.8,0,32.3-2.8,46-5.7c23.5-4.9,39.3-6.3,50.6-3.8c-2.9-0.4-5.8-0.6-8.7-0.5 c-12.3,0.2-28,3.5-43.1,7.1c-16.2,3.8-43.2,8-64.7,1C61.4,85.9,68,86.5,74.7,86.4z M100.7,71.4c8-1.4,15.5-2.8,22.4-3.7 c24.9-3.3,40.2-0.8,50.9,5.4c-2.8-1.3-5.7-2.3-8.7-3c-10.9-2.6-24.6-2.5-43.2,0.5c-4.3,0.7-8.8,1.4-13.6,2.3 c-15.9,2.8-33.9,5.9-50.1,5.9c-5.1,0-10.3-0.3-15.3-1.1l-0.3-0.2c2.4,0.2,4.8,0.2,7.2,0.2C65.9,77.6,83.9,74.4,100.7,71.4z M161.8,78.7c-11.5,1-25.7,4.7-43.1,9.4c-17.8,4.8-40.9,6.4-59.4-0.6c6.1,1.5,12.3,2.3,18.5,2.5c1.3,0,2.7,0.1,4,0.1 c12.8-0.2,25.6-1.8,38-4.8c23-5.5,39.2-8.3,51.2-6.7C168,78.3,164.9,78.4,161.8,78.7z"></path> </svg> 